<?xml version="1.0" encoding="iso-8859-1"?>
<!-- Generator: Adobe Illustrator 18.1.1, SVG Export Plug-In . SVG Version: 6.00 Build 0)  -->
<svg xmlns="http://www.w3.org/2000/svg" xmlns:xlink="http://www.w3.org/1999/xlink" version="1.1" id="Capa_1" x="0px" y="0px" viewBox="0 0 28.519 28.519" style="enable-background:new 0 0 28.519 28.519;" xml:space="preserve" width="16px" height="16px">
<g>
	<g id="c4_telephone">
		<path d="M24.325,25.813v-0.006L20.6,19.512c-0.285-0.488-0.904-0.638-1.383-0.355l-2.22,1.314l0.183,0.307    c-0.982,0.442-1.854-0.556-3.399-2.65l-3.177-5.362c-0.627-1.372-1.123-2.764-0.17-3.437l0.102,0.174l2.219-1.312V8.187    c0.508-0.301,0.629-0.927,0.355-1.39V6.792L9.386,0.497C9.102,0.01,8.482-0.142,8.003,0.142L5.786,1.456l0.136,0.227    c-1.229,1.01-4.3,5.781,1.793,16.364c6.324,10.984,12.35,10.916,13.879,10.205l0.155,0.267l2.219-1.311v-0.003    C24.478,26.903,24.597,26.277,24.325,25.813z" fill="#888888"/>
	</g>
	<g id="Capa_1_167_">
	</g>
</g>
<g>
</g>
<g>
</g>
<g>
</g>
<g>
</g>
<g>
</g>
<g>
</g>
<g>
</g>
<g>
</g>
<g>
</g>
<g>
</g>
<g>
</g>
<g>
</g>
<g>
</g>
<g>
</g>
<g>
</g>
</svg>
